<svg id="WebGL" xmlns="http://www.w3.org/2000/svg" viewBox="0 0 1082.23 452.24"><defs><style>.cls-1{isolation:isolate;}.cls-2{fill:#ae132a;}</style></defs><title>WebGL_RGB_May16</title><g id="TM" class="cls-1"><path class="cls-2" d="M1113.52,323.57h-7.35v19.11h-6.42V323.57h-7.35v-5.52h21.11v5.52h0Z" transform="translate(-61.62 -23.33)"/><path class="cls-2" d="M1116.38,318.05h9.45l4.24,16.42h0.07l4.24-16.42h9.45v24.63h-6V324h-0.07l-5.17,18.7h-4.9l-5.18-18.7h-0.07v18.7h-6V318.05h0Z" transform="translate(-61.62 -23.33)"/></g><path class="cls-2" d="M859.42,341.29A69.26,69.26,0,0,1,832.3,347q-21.61,0-38.86-7.52a83.16,83.16,0,0,1-29.11-20.72,91.68,91.68,0,0,1-18.17-31,114,114,0,0,1-6.32-38.41,118.29,118.29,0,0,1,6.3-39.19,94.21,94.21,0,0,1,18.13-31.54,82.91,82.91,0,0,1,29.07-21.12q17.25-7.65,38.85-7.66a91.08,91.08,0,0,1,28,4.36A79.52,79.52,0,0,1,884.74,167a69.32,69.32,0,0,1,26.74,49.32H872q-3.69-15.8-14.23-23.7t-25.55-7.9q-14,0-23.71,5.41a44.86,44.86,0,0,0-15.81,14.52,63.6,63.6,0,0,0-8.82,20.72,103.08,103.08,0,0,0-2.76,24,95.9,95.9,0,0,0,2.77,23.1,62.49,62.49,0,0,0,8.83,20.19A45.26,45.26,0,0,0,808.52,307q9.75,5.41,23.74,5.41,20.57,0,31.77-10.38T877.1,272H835.48V241h78.91v101.7H888.13l-4.2-21.34Q872.86,335.63,859.42,341.29Z" transform="translate(-61.62 -23.33)"/><path class="cls-2" d="M981.45,154.55V307.69h91.67V342.6H940.19v-188h41.26Z" transform="translate(-61.62 -23.33)"/><path class="cls-2" d="M786.33,366c-63.13,38.39-157.68,60.25-263.17,60.25C333.1,426.22,179,347.08,179,249.45S333.1,72.68,523.16,72.68C629,72.68,724,94.94,787.1,133.57,718.2,68.84,594.65,23.35,453.39,23.33,237,23.3,61.63,124.51,61.62,249.39S237,475.54,453.32,475.57C594,475.59,717.25,430.25,786.33,366Z" transform="translate(-61.62 -23.33)"/><polygon class="cls-2" points="378 116.59 341.72 273.58 297.91 116.59 264.64 116.59 220.93 273.59 184.55 116.59 150.27 116.59 204.1 321.22 236.26 321.22 281.55 160.5 326.29 321.22 358.54 321.22 414.26 116.59 378 116.59"/><path class="cls-2" d="M566.53,226.05a50.4,50.4,0,0,0-18.73-16.22,58.36,58.36,0,0,0-26.2-5.69c-11,0-20.93,2-29.48,5.93a55.18,55.18,0,0,0-20.58,16.32c-10.26,13.13-15.69,31.63-15.69,53.5A86.81,86.81,0,0,0,460,307a63.37,63.37,0,0,0,12,21.71c11,12.79,26.7,19.55,45.38,19.55,9.81,0,17.82-1,24.48-3.14a48.59,48.59,0,0,0,12.86-6.32A54.4,54.4,0,0,0,565.85,329a61.43,61.43,0,0,0,7.46-10.8c3.82-7,5.66-13.56,6.08-17l0.28-2.3H552.95l-0.15,1.89c-0.67,8.68-12.07,24.19-32.37,24.19-29,0-35.94-21-36.4-39.46H581.2v-2.05a133.17,133.17,0,0,0-3.62-32.34A74.35,74.35,0,0,0,566.53,226.05Zm-48,2.2c21.53,0,33,11.59,35.13,35.4h-69.6C485.08,244.26,500.45,228.25,518.52,228.25Z" transform="translate(-61.62 -23.33)"/><path class="cls-2" d="M715.69,245.73a65.17,65.17,0,0,0-11.33-21.65A52.35,52.35,0,0,0,686,209.51a57,57,0,0,0-24.65-5.29h0a50.13,50.13,0,0,0-22.43,5.36,47.93,47.93,0,0,0-14.62,11.83V158.63H597.65v186H623V331.93a41.77,41.77,0,0,0,8.87,8.69c7.19,5.15,16.08,7.76,26.42,7.76,11.13,0,21.05-2.48,29.49-7.38a55,55,0,0,0,18.94-18.69,81.41,81.41,0,0,0,9.95-24.55,111.78,111.78,0,0,0,2.91-25.38A89.1,89.1,0,0,0,715.69,245.73Zm-23.91,30.19c0,14.6-2.94,26.83-8.49,35.38-5.92,9.11-14.5,13.72-25.52,13.72-15.93,0-34.52-11.14-34.52-42.52,0-15,1.86-26.6,5.68-35.37,5.52-12.66,14.79-18.81,28.33-18.81,14.42,0,24.06,5.65,29.47,17.27C691.21,255.21,691.78,266.85,691.78,275.92Z" transform="translate(-61.62 -23.33)"/></svg>